<?xml version="1.0" encoding="UTF-8" standalone="no"?>
<svg
   width="210mm"
   height="297mm"
   viewBox="0 0 210 297"
   version="1.1"
   id="svg8"
   inkscape:version="1.1 (c4e8f9e, 2021-05-24)"
   sodipodi:docname="androidhols.svg"
   inkscape:export-filename="/Users/engis/Desktop/androidhols.png"
   inkscape:export-xdpi="167.8754"
   inkscape:export-ydpi="167.8754"
   xmlns:inkscape="http://www.inkscape.org/namespaces/inkscape"
   xmlns:sodipodi="http://sodipodi.sourceforge.net/DTD/sodipodi-0.dtd"
   xmlns="http://www.w3.org/2000/svg"
   xmlns:svg="http://www.w3.org/2000/svg"
   xmlns:rdf="http://www.w3.org/1999/02/22-rdf-syntax-ns#"
   xmlns:cc="http://creativecommons.org/ns#"
   xmlns:dc="http://purl.org/dc/elements/1.1/">
  <defs
     id="defs2" />
  <sodipodi:namedview
     id="base"
     pagecolor="#ffffff"
     bordercolor="#666666"
     borderopacity="1.0"
     inkscape:pageopacity="0.0"
     inkscape:pageshadow="2"
     inkscape:zoom="0.613829"
     inkscape:cx="297.31407"
     inkscape:cy="536.79445"
     inkscape:document-units="mm"
     inkscape:current-layer="layer5"
     inkscape:document-rotation="0"
     showgrid="false"
     inkscape:window-width="1252"
     inkscape:window-height="847"
     inkscape:window-x="0"
     inkscape:window-y="25"
     inkscape:window-maximized="0"
     inkscape:pagecheckerboard="0"
     inkscape:snap-others="true"
     inkscape:snap-global="false" />
  <metadata
     id="metadata5">
    <rdf:RDF>
      <cc:Work
         rdf:about="">
        <dc:format>image/svg+xml</dc:format>
        <dc:type
           rdf:resource="http://purl.org/dc/dcmitype/StillImage" />
        <dc:title />
      </cc:Work>
    </rdf:RDF>
  </metadata>
  <g
     inkscape:groupmode="layer"
     id="layer6"
     inkscape:label="umbrella">
    <rect
       style="fill:#ffffff;stroke:#000000;stroke-width:2.53081"
       id="rect1053"
       width="8.1313229"
       height="67.832077"
       x="73.888527"
       y="92.439812"
       rx="6.3191342"
       ry="11.536684"
       inkscape:transform-center-y="25.129507"
       transform="matrix(1,0,0.16009101,0.98710226,0,0)"
       inkscape:transform-center-x="-4.0755721" />
    <path
       style="fill:#ffffff;fill-opacity:1;stroke:#000000;stroke-width:2.65;stroke-linecap:butt;stroke-linejoin:miter;stroke-miterlimit:4;stroke-dasharray:none;stroke-opacity:1"
       d="M 32.9079,129.82107 C 25.489763,91.692372 51.7892,57.689504 85.331026,51.239369 c 33.706484,-6.4818 70.616494,15.071806 76.231954,53.934801 -4.1341,-10.521005 -19.21365,-4.85266 -19.48262,3.95266 -3.07732,-9.638711 -28.64992,-5.8116 -27.89553,5.62599 -5.2273,-11.52265 -33.85627,-4.75816 -34.298089,5.7471 -4.025411,-10.38674 -26.722255,-5.22984 -27.521071,5.10654 -2.032464,-9.41254 -19.267247,-8.96569 -19.457764,4.21464 z"
       id="path79"
       sodipodi:nodetypes="cscccccc" />
    <g
       id="g2731"
       style="stroke:#000000;stroke-width:1.74878;stroke-miterlimit:4;stroke-dasharray:none;stroke-opacity:1"
       transform="matrix(1.4957619,0.24282489,-0.24282489,1.4957619,38.47498,-247.6063)">
      <path
         style="fill:none;stroke:#000000;stroke-width:1.74878;stroke-linecap:butt;stroke-linejoin:miter;stroke-miterlimit:4;stroke-dasharray:none;stroke-opacity:1"
         d="m 65.901492,235.40088 c 0,0 -13.190028,-39.70371 -3.835116,-45.65684 30.40888,-4.12535 43.144634,31.67172 43.144634,31.67172"
         id="path513"
         sodipodi:nodetypes="ccc" />
      <path
         style="fill:none;stroke:#000000;stroke-width:1.74878;stroke-linecap:butt;stroke-linejoin:miter;stroke-miterlimit:4;stroke-dasharray:none;stroke-opacity:1"
         d="m 62.066376,189.74404 c 11.244791,-0.85044 25.568743,38.28631 25.568743,38.28631"
         id="path723"
         sodipodi:nodetypes="cc" />
      <path
         style="fill:none;stroke:#000000;stroke-width:1.74878;stroke-linecap:butt;stroke-linejoin:miter;stroke-miterlimit:4;stroke-dasharray:none;stroke-opacity:1"
         d="M 62.066376,189.74404 C 37.016829,203.39211 48.514584,241.63749 48.514584,241.63749"
         id="path1084"
         sodipodi:nodetypes="cc" />
    </g>
  </g>
  <g
     inkscape:groupmode="layer"
     id="g3975"
     inkscape:label="left leg">
    <rect
       style="fill:#ffffff;stroke:#000000;stroke-width:2.65;stroke-miterlimit:4;stroke-dasharray:none"
       id="rect3973"
       width="14.545124"
       height="55.883904"
       x="192.05316"
       y="-198.3949"
       rx="6.1059589"
       ry="7.6465759"
       transform="rotate(95.492636)" />
  </g>
  <g
     inkscape:groupmode="layer"
     id="layer3"
     inkscape:label="glass arm">
    <rect
       style="fill:#ffffff;stroke:#000000;stroke-width:2.65;stroke-miterlimit:4;stroke-dasharray:none"
       id="rect865"
       width="14.545124"
       height="55.883904"
       x="208.66705"
       y="-121.95705"
       rx="6.1059589"
       ry="7.6465759"
       transform="rotate(75.453927)"
       inkscape:transform-center-x="-15.205814"
       inkscape:transform-center-y="-1.906663" />
  </g>
  <g
     inkscape:label="body"
     inkscape:groupmode="layer"
     id="layer1">
    <rect
       style="fill:#ffffff;stroke:#000000;stroke-width:2.65;stroke-miterlimit:4;stroke-dasharray:none"
       id="rect837"
       width="46.483128"
       height="54.349499"
       x="28.62557"
       y="198.48087"
       rx="10.72689"
       ry="11.43382"
       transform="rotate(-16.95242)" />
  </g>
  <g
     inkscape:groupmode="layer"
     id="g3971"
     inkscape:label="right leg">
    <rect
       style="fill:#ffffff;stroke:#000000;stroke-width:2.66209;stroke-miterlimit:4;stroke-dasharray:none"
       id="rect3969"
       width="14.450101"
       height="56.765739"
       x="193.85426"
       y="-175.55385"
       rx="6.0660686"
       ry="7.7672372"
       transform="matrix(-0.04803411,0.9988457,-0.98334381,-0.1817552,0,0)"
       inkscape:transform-center-x="-21.021722"
       inkscape:transform-center-y="4.3035506" />
  </g>
  <g
     inkscape:groupmode="layer"
     id="g3967"
     inkscape:label="other arm">
    <rect
       style="fill:#ffffff;stroke:#000000;stroke-width:2.65;stroke-miterlimit:4;stroke-dasharray:none"
       id="rect3965"
       width="14.545124"
       height="55.883904"
       x="180.18584"
       y="101.43031"
       rx="6.1059589"
       ry="7.6465759"
       transform="rotate(32.239272)"
       inkscape:transform-center-x="11.360323"
       inkscape:transform-center-y="18.11774" />
  </g>
  <g
     inkscape:groupmode="layer"
     id="layer4"
     inkscape:label="glass">
    <g
       id="g3931"
       transform="matrix(1.5934668,0,0,1.5878498,20.571191,39.258867)"
       style="stroke-width:1.66313;stroke-miterlimit:4;stroke-dasharray:none">
      <ellipse
         style="fill:#ffffff;fill-opacity:1;stroke:#000000;stroke-width:1.66313;stroke-miterlimit:4;stroke-dasharray:none;stroke-opacity:1"
         id="path3769"
         cx="92.443916"
         cy="95.136307"
         rx="6.0875697"
         ry="2.0980301" />
      <path
         sodipodi:type="star"
         style="fill:#ffffff;fill-opacity:1;stroke:#000000;stroke-width:9.10855;stroke-miterlimit:4;stroke-dasharray:none;stroke-opacity:1"
         id="path3531"
         inkscape:flatsided="false"
         sodipodi:sides="3"
         sodipodi:cx="449.26459"
         sodipodi:cy="190.64946"
         sodipodi:r1="49.534302"
         sodipodi:r2="24.767151"
         sodipodi:arg1="1.5707963"
         sodipodi:arg2="2.6179939"
         inkscape:rounded="0"
         inkscape:randomized="0"
         d="m 449.26459,240.18376 -21.44898,-37.15073 -21.44899,-37.15072 42.89797,0 42.89796,0 -21.44898,37.15073 z"
         transform="matrix(0.21173419,0,0,0.15745822,-2.5286609,46.828981)"
         inkscape:transform-center-y="1.9498993" />
      <path
         style="fill:none;stroke:#000000;stroke-width:1.66313;stroke-linecap:butt;stroke-linejoin:miter;stroke-miterlimit:4;stroke-dasharray:none;stroke-opacity:1"
         d="M 92.596407,84.08412 V 95.248385"
         id="path3665" />
    </g>
    <circle
       style="fill:#ffffff;fill-opacity:1;stroke:#000000;stroke-width:2.65"
       id="path1465"
       cx="126.37561"
       cy="187.54987"
       r="4.2834373" />
    <circle
       style="fill:#ffffff;fill-opacity:1;stroke:#000000;stroke-width:2.65"
       id="path1465-0"
       cx="130.08795"
       cy="200.40021"
       r="4.2834373" />
  </g>
  <g
     inkscape:groupmode="layer"
     id="layer2"
     inkscape:label="head">
    <rect
       style="fill:#ffffff;stroke:#000000;stroke-width:2.65;stroke-miterlimit:4;stroke-dasharray:none"
       id="rect833"
       width="87.813896"
       height="54.259613"
       x="46.477318"
       y="132.93004"
       rx="9.6146584"
       ry="10.206277"
       transform="matrix(0.99508827,-0.09899161,0.09896761,0.99509066,0,0)" />
    <circle
       style="fill:#ffffff;fill-opacity:1;stroke:#000000;stroke-width:2.65;stroke-miterlimit:4;stroke-dasharray:none;stroke-opacity:1"
       id="path3203"
       cx="76.135345"
       cy="159.68434"
       r="13.970153"
       transform="rotate(-5.8484831)" />
    <circle
       style="fill:#ffffff;fill-opacity:1;stroke:#000000;stroke-width:2.65;stroke-miterlimit:4;stroke-dasharray:none;stroke-opacity:1"
       id="path3203-6"
       cx="113.86472"
       cy="159.68434"
       r="13.970153"
       transform="rotate(-5.8484831)" />
  </g>
  <g
     inkscape:groupmode="layer"
     id="layer5"
     inkscape:label="colour">
    <path
       style="fill:#000000;stroke:#000000;stroke-width:6.1573"
       d="m 297.13589,211.31763 c -41.02792,24.45443 -68.48782,66.924 -81.41137,112.27552 -12.41727,41.04982 -15.16155,84.7807 -13.59932,127.13168 24.86502,-20.80062 61.33704,-29.26631 91.37381,-14.93571 -7.27826,-61.93214 -13.97727,-125.80429 -4.9389,-188.20586 1.22229,-12.38126 6.51997,-24.68329 8.89715,-36.30381 h -0.0636 z"
       id="path1708"
       transform="scale(0.26458333)" />
    <path
       style="fill:#000000;stroke:#000000;stroke-width:6.1573"
       d="m 351.22452,202.57703 c 37.2167,45.33701 52.76702,103.40902 68.85801,158.64603 5.23586,15.87708 7.35545,33.23473 12.97018,48.69426 11.37657,-10.47746 24.97833,-18.72486 40.51795,-21.03853 16.61956,-3.58136 34.58953,-3.04744 50.4963,2.1064 -0.86695,-15.19135 -9.01832,-29.47325 -14.19115,-43.69983 -24.85636,-58.70133 -67.15328,-114.98998 -129.15292,-137.03618 -9.52164,-3.30982 -19.82123,-6.53041 -29.49837,-7.67215 z"
       id="path1747"
       transform="scale(0.26458333)" />
    <path
       style="fill:#000000;stroke:#000000;stroke-width:6.1573"
       d="m 346.00943,524.55697 c -29.81183,-0.62921 -52.81901,32.69155 -42.80253,60.45874 7.61508,26.28776 40.6233,41.67869 65.03745,28.08638 18.82826,-9.38274 30.85107,-31.8671 24.68178,-52.63134 -4.16199,-21.90985 -24.7381,-37.40231 -46.9167,-35.91378 z"
       id="path1786"
       transform="scale(0.26458333)" />
    <path
       style="fill:#000000;stroke:#000000;stroke-width:6.1573"
       d="m 487.04907,509.99991 c -23.62629,0.16947 -44.56474,22.36172 -43.88061,45.93728 -1.61102,21.71281 15.99868,42.32107 37.03322,46.51199 27.33527,6.66119 56.34091,-16.88308 55.9723,-44.98211 1.33907,-26.16991 -22.70978,-50.32936 -49.12491,-47.46716 z"
       id="path1825"
       transform="scale(0.26458333)" />
    <path
       style="fill:#000000;stroke:#000000;stroke-width:6.1573"
       d="m 364.08246,418.43519 c -3.91791,0.87434 -12.10521,0.32426 -9.74289,6.78693 1.51853,12.4347 2.01852,25.7015 6.30647,37.38381 5.93163,1.48359 12.65429,-0.55604 18.51213,-1.39684 -2.06389,-14.62153 -4.26046,-29.4462 -6.93012,-43.84301 -2.71519,0.35637 -5.43039,0.71274 -8.14559,1.06911 z"
       id="path1903"
       transform="scale(0.26458333)" />
    <path
       style="fill:#000000;stroke:#000000;stroke-width:6.1573"
       d="m 476.59344,698.52579 c -11.16988,0.93575 -11.89695,18.13486 -1.17729,20.54853 11.0611,2.41641 17.54578,-15.42331 6.35737,-19.63215 -1.60045,-0.76317 -3.41174,-1.11333 -5.18008,-0.91638 z"
       id="path1942"
       transform="scale(0.26458333)" />
    <path
       style="fill:#000000;stroke:#000000;stroke-width:6.1573"
       d="m 491.31914,746.78524 c -10.94484,0.76248 -12.93794,17.81516 -2.24322,21.01944 6.96163,1.53219 16.09825,-6.53965 11.89065,-13.9366 -1.56879,-3.81839 -5.18668,-7.55824 -9.64743,-7.08284 z"
       id="path1981"
       transform="scale(0.26458333)" />
    <path
       style="fill:#000000;stroke:#000000;stroke-width:6.1573"
       d="m 622.69543,659.54469 c -36.37272,8.81641 -72.96203,17.81454 -108.65773,28.7323 1.74128,14.0022 6.69969,27.95787 11.8302,40.95386 29.70042,-6.75456 58.98003,-15.69703 87.73056,-25.56315 8.28842,-1.80939 19.71556,-0.55883 15.44162,-12.76885 -0.1582,-10.78964 0.31596,-21.87444 -0.23545,-32.48055 -2.0364,0.37546 -4.0728,0.75092 -6.1092,1.12639 z"
       id="path2020"
       transform="scale(0.26458333)" />
    <path
       style="fill:#000000;stroke:#000000;stroke-width:6.1573"
       d="m 642.57576,668.45393 c -1.03421,7.47325 -1.65022,16.53121 0.19728,23.87994 6.97048,-4.72363 3.62405,-18.26072 -0.19728,-23.87994 z"
       id="path2059"
       transform="scale(0.26458333)" />
    <path
       style="fill:#000000;stroke:#000000;stroke-width:6.1573"
       d="m 545.03549,787.49092 c -4.35904,2.01042 0.82302,8.64603 -0.0955,12.30748 1.79219,5.49664 -2.94159,12.75659 0.7891,17.25529 20.66306,4.78179 44.03002,-1.46366 63.10924,9.40561 6.84463,5.24417 12.29682,14.9833 22.47356,12.94067 11.24004,-1.01671 27.66733,4.0551 34.15421,-8.4765 6.79268,-10.82491 3.49487,-29.01708 -10.917,-31.23007 -35.97132,-7.10092 -73.08104,-8.4248 -109.51366,-12.20248 z"
       id="path2098"
       transform="scale(0.26458333)" />
    <path
       style="fill:#000000;stroke:#000000;stroke-width:6.1573"
       d="m 379.63545,702.86905 c -15.11546,1.14658 -20.12863,18.65546 -28.55721,28.56485 -25.04664,39.02806 -50.65708,77.85705 -73.94042,117.91897 -2.92794,8.49683 -3.79114,20.56091 5.9501,25.06995 6.14208,5.66313 15.01683,8.73236 22.29856,3.07689 12.9702,-7.66131 17.57806,-23.64896 26.63885,-34.97894 23.47492,-37.71164 48.15535,-74.8562 69.66685,-113.68129 3.93933,-12.94758 -10.09728,-25.41815 -22.05673,-25.97043 z"
       id="path2137"
       transform="scale(0.26458333)" />
    <path
       style="fill:#000000;stroke:#000000;stroke-width:6.1573"
       d="m 544.22412,820.70648 c -3.70892,1.3092 -5.35602,6.43108 -6.10601,9.63152 25.21249,2.33285 51.14532,6.0425 75.97036,7.38513 -9.13231,-14.79123 -28.56827,-13.2473 -43.65213,-14.64549 -8.75351,-0.55933 -17.56245,-1.10897 -26.21222,-2.37116 z"
       id="path2332"
       transform="scale(0.26458333)" />
    <path
       style="fill:#000000;stroke:#000000;stroke-width:6.1573"
       d="m 426.01441,824.66791 c -16.34291,-0.15319 -20.04145,22.62316 -10.84064,33.02146 11.21615,11.16357 28.95481,10.49205 43.32064,14.5904 44.67114,7.91267 89.06951,17.76549 133.93824,24.34934 9.22876,-0.006 18.58556,-6.88812 17.9012,-16.92437 3.34326,-15.05379 -12.72429,-25.11105 -25.62042,-27.07136 -49.20119,-10.17597 -98.73309,-18.98148 -148.28794,-27.27501 -3.4528,-0.41596 -6.92688,-0.77527 -10.41108,-0.69046 z"
       id="path2408"
       transform="scale(0.26458333)" />
  </g>
</svg>
